<svg xmlns="http://www.w3.org/2000/svg" viewBox="0 0 160 160" role="img" aria-labelledby="t"><title id="t">Símbolo AnnA One</title><defs><linearGradient id="a" x1="0" y1="0" x2="1" y2="1"><stop stop-color="#2ae0ef"/><stop offset=".5" stop-color="#087cff"/><stop offset="1" stop-color="#0746e8"/></linearGradient></defs><path d="M71 13Q80-1 89 14L151 128Q157 142 142 145H119Q109 145 103 134L80 89L57 134Q51 145 40 145H17Q2 143 9 129Z" fill="url(#a)"/><path d="M22 112Q55 83 90 100Q71 90 54 108Q40 123 32 139H16Q9 139 11 131Z" fill="#061c72"/><path d="M14 129Q37 93 65 103Q78 107 84 117Q63 107 51 128Q41 145 25 145H15Q5 144 14 129Z" fill="#24c5f7"/></svg>